<!DOCTYPE svg PUBLIC "-//W3C//DTD SVG 1.1//EN" "http://www.w3.org/Graphics/SVG/1.1/DTD/svg11.dtd">

<!-- Uploaded to: SVG Repo, www.svgrepo.com, Transformed by: SVG Repo Mixer Tools -->
<svg width="256px" height="256px" viewBox="-4.8 -4.8 57.60 57.60" xmlns="http://www.w3.org/2000/svg" fill="#ffffff" stroke="#ffffff" stroke-width="3.168">

<g id="SVGRepo_bgCarrier" stroke-width="0">

<rect x="-4.8" y="-4.8" width="57.60" height="57.60" rx="28.8" fill="#FFFFFF" strokewidth="0"/>

</g>

<g id="SVGRepo_tracerCarrier" stroke-linecap="round" stroke-linejoin="round" stroke="#CCCCCC" stroke-width="0.4800000000000001">

<defs>

<style>.a{fill:none;stroke:#000000;stroke-linecap:round;stroke-linejoin:round;}</style>

</defs>

<path class="a" d="M43.5,35.9,4.5053,16.2415l0-1.3823a3.7172,3.7172,0,0,1,3.7222-3.7284h21.997a3.7171,3.7171,0,0,1,3.7222,3.7284v1.6952"/>

<path class="a" d="M43.5,11.8355l-39,19.66.0053,1.6451a3.7172,3.7172,0,0,0,3.7222,3.7284h21.997a3.7171,3.7171,0,0,0,3.7222-3.7284v-1.948"/>

</g>

<g id="SVGRepo_iconCarrier">

<defs>

<style>.a{fill:none;stroke:#000000;stroke-linecap:round;stroke-linejoin:round;}</style>

</defs>

<path class="a" d="M43.5,35.9,4.5053,16.2415l0-1.3823a3.7172,3.7172,0,0,1,3.7222-3.7284h21.997a3.7171,3.7171,0,0,1,3.7222,3.7284v1.6952"/>

<path class="a" d="M43.5,11.8355l-39,19.66.0053,1.6451a3.7172,3.7172,0,0,0,3.7222,3.7284h21.997a3.7171,3.7171,0,0,0,3.7222-3.7284v-1.948"/>

</g>

</svg>
